<?xml version="1.0" encoding="utf-8"?>
<!-- Generator: Adobe Illustrator 22.1.0, SVG Export Plug-In . SVG Version: 6.00 Build 0)  -->
<svg version="1.1" id="Layer_1" xmlns="http://www.w3.org/2000/svg" xmlns:xlink="http://www.w3.org/1999/xlink" x="0px" y="0px"
	 viewBox="0 0 14 8" style="enable-background:new 0 0 14 8;" xml:space="preserve">
<style type="text/css">
	.st0{opacity:0.38;}
	.st1{filter:url(#Adobe_OpacityMaskFilter);}
	.st2{fill:#FFFFFF;}
	.st3{mask:url(#mask-2_1_);}
</style>
<g id="Page-1" class="st0">
	<g id="RTDS-Analysis-pool-1-new" transform="translate(-241.000000, -150.000000)">
		<g id="Icons_x2F_Solid_x2F_angle-down" transform="translate(236.000000, 142.000000)">
			<g id="angle-down">
				<path id="path-1_1_" d="M11.3,15.8l-5.5-5.3c-0.4-0.4-0.4-1,0-1.3l0.9-0.9c0.4-0.4,1-0.4,1.4,0L12,12l3.9-3.8
					c0.4-0.4,1-0.4,1.4,0l0.9,0.9c0.4,0.4,0.4,1,0,1.3l-5.5,5.3C12.3,16.1,11.7,16.1,11.3,15.8z"/>
			</g>
			<defs>
				<filter id="Adobe_OpacityMaskFilter" filterUnits="userSpaceOnUse" x="0" y="0" width="24" height="24">
					<feColorMatrix  type="matrix" values="1 0 0 0 0  0 1 0 0 0  0 0 1 0 0  0 0 0 1 0"/>
				</filter>
			</defs>
			<mask maskUnits="userSpaceOnUse" x="0" y="0" width="24" height="24" id="mask-2_1_">
				<g class="st1">
					<path id="path-1_2_" class="st2" d="M11.3,15.8l-5.5-5.3c-0.4-0.4-0.4-1,0-1.3l0.9-0.9c0.4-0.4,1-0.4,1.4,0L12,12l3.9-3.8
						c0.4-0.4,1-0.4,1.4,0l0.9,0.9c0.4,0.4,0.4,1,0,1.3l-5.5,5.3C12.3,16.1,11.7,16.1,11.3,15.8z"/>
				</g>
			</mask>
			<g id="Colors_x2F_Third" class="st3">
				<rect id="Rectangle" width="24" height="24"/>
			</g>
		</g>
	</g>
</g>
</svg>
